<svg xmlns="http://www.w3.org/2000/svg" width="110" height="78" viewBox="0 0 110 78">
    <g fill="none" fill-rule="evenodd">
        <path fill="#22458B" d="M90 71h20V9H90z"/>
        <path fill="#BAB9BB" d="M70 74h20V4H70z"/>
        <path fill="#D92A25" d="M0 78h70V0H0z"/>
        <path fill="#FEFEFE" d="M70.015 52.836c.65.04 1.242.057 2.056.057h.555V54h-2.61v-1.164zM90 19.072h3.93c4.472 0 7.965.761 10.493 2.277 2.53 1.524 3.79 3.601 3.79 6.248 0 1.773-.725 3.305-2.175 4.588-1.45 1.283-3.583 2.302-6.417 3.047v.642c3.443.497 6.03 1.548 7.768 3.16 1.738 1.604 2.611 3.705 2.611 6.304 0 2.775-1.217 4.92-3.657 6.44-2.436 1.519-5.849 2.221-10.248 2.221H90v-2.937c1.82 1.78 2.957 1.88 4.38 1.873 2.729-.014 4.698-.747 5.925-1.927 1.343-1.291 2.018-3.433 2.018-6.424 0-2.8-.816-4.933-2.447-6.392-1.63-1.452-4.044-2.182-7.224-2.182H90v-1.29h2.34c2.924 0 5.024-.578 6.293-1.725 1.268-1.155 1.902-3.056 1.902-5.703 0-2.55-.617-4.37-1.853-5.47-.618-.529-1.45-.938-2.496-1.218-1.054-.281-2.315-.426-3.78-.426-1.074 0-1.876.09-2.406.272v-1.378zM70.015 19h2.345c4.852 0 8.662.865 11.453 2.574 2.79 1.708 4.181 4.034 4.181 6.985 0 2.11-.704 3.81-2.12 5.085-1.415 1.276-3.593 2.174-6.541 2.687 1.573.955 3.064 2.647 4.488 5.069l.199.33 2.782 4.86.223.4c.98 1.75 1.97 3.108 2.969 4.072L90 54h-7.28l-5.217-10.097c-1.648-3.137-2.981-5.085-4.016-5.863-.928-.703-2.086-1.086-3.487-1.153V35.37h.787c3.221 0 5.664-.666 7.345-1.99 1.673-1.33 2.51-3.263 2.51-5.814 0-2.302-.827-4.125-2.477-5.454-1.645-1.326-3.893-2.004-6.758-2.004-.522 0-.986.03-1.392.044V19zM70 20.15c-1.113.083-1.872.285-2.285.607-.548.424-.655 1.339-.655 2.734v26.026c0 1.363.107 2.27.655 2.727.413.315 1.172.512 2.285.592v1.148H55v-1.107h.54c1.829 0 3.013-.208 3.57-.633.547-.425.821-1.332.821-2.727V23.49c0-1.411-.266-2.326-.79-2.75-.531-.426-1.748-.634-3.65-.634V19H70v1.15z"/>
    </g>
</svg>
